<svg xmlns:dc="http://purl.org/dc/elements/1.1/" xmlns:cc="http://creativecommons.org/ns#" xmlns:rdf="http://www.w3.org/1999/02/22-rdf-syntax-ns#" xmlns:svg="http://www.w3.org/2000/svg" xmlns="http://www.w3.org/2000/svg" xmlns:sodipodi="http://sodipodi.sourceforge.net/DTD/sodipodi-0.dtd" xmlns:inkscape="http://www.inkscape.org/namespaces/inkscape" width="744.09448819" height="1052.3622047" version="1.1" inkscape:version="0.91 r13725" sodipodi:docname="drawing.svg" style=""><rect id="backgroundrect" width="100%" height="100%" x="0" y="0" fill="none" stroke="none"/>
  <defs id="defs4228"/>
  <sodipodi:namedview id="base" pagecolor="#ffffff" bordercolor="#666666" borderopacity="1.0" inkscape:pageopacity="0.0" inkscape:pageshadow="2" inkscape:zoom="0.7" inkscape:cx="233.64535" inkscape:cy="507.53535" inkscape:document-units="px" inkscape:current-layer="layer1" showgrid="false" inkscape:window-width="1680" inkscape:window-height="1023" inkscape:window-x="1680" inkscape:window-y="0" inkscape:window-maximized="1"/>
  <metadata id="metadata4231">
    <rdf:RDF>
      <cc:Work rdf:about="">
        <dc:format>image/svg+xml</dc:format>
        <dc:type rdf:resource="http://purl.org/dc/dcmitype/StillImage"/>
        <dc:title/>
      </cc:Work>
    </rdf:RDF>
  </metadata>
  
<g class="currentLayer" style=""><title>Layer 1</title><g inkscape:label="Layer 1" inkscape:groupmode="layer" id="layer1" class="selected" fill="#ffffff" fill-opacity="1">
    <path style="" d="M 346.96916,856.14178 C 329.06463,850.865 310.34668,841.54321 249.57403,807.63751 220.61411,791.48048 176.8017,767.08266 152.21308,753.42018 127.6245,739.75769 103.03596,725.70416 97.571775,722.19003 c -28.64198,-18.4202 -50.54366,-46.59748 -59.38714,-76.40352 -2.81785,-9.49753 -3.20205,-28.32782 -3.20205,-156.97587 0,-139.47716 0.17958,-146.81172 3.91373,-159.86926 5.19349,-18.16085 17.15843,-37.85396 32.04106,-52.7366 16.55528,-16.5553 23.90992,-21.32477 85.249665,-55.28341 6.01055,-3.3275 20.76368,-11.56619 32.78479,-18.3081 83.6304,-46.90329 124.094,-68.74912 138.17601,-74.59952 49.26676,-20.46798 71.88409,-16.48411 148.93927,26.23459 108.71033,60.26792 171.39489,95.66185 180.81319,102.09326 14.9963,10.24061 36.0769,32.21096 44.6522,46.53703 3.9179,6.54511 8.8858,17.81816 11.0399,25.05119 3.7439,12.57128 3.9166,19.64219 3.9166,160.36588 l 0,147.21485 -4.9457,15.65555 c -5.8596,18.5491 -19.1975,38.58544 -35.7658,53.72796 -14.2738,13.04549 -22.5092,18.65497 -48.7016,33.173 -11.4746,6.36025 -31.5926,17.54934 -44.70651,24.86465 -151.75152,84.65135 -158.5271,88.14814 -182.72079,94.29919 -15.75645,4.00596 -36.89359,3.56916 -52.69944,-1.08912 z m 60.06289,-133.80712 c 13.13878,-5.73624 48.58245,-25.13469 137.6051,-75.31169 21.22351,-11.96253 37.32797,-27.52649 45.69999,-44.16638 l 5.96086,-11.84747 0,-103.32181 0,-103.32177 -5.73285,-10.9283 c -3.15304,-6.01047 -11.67674,-16.74006 -18.94141,-23.84346 -11.61974,-11.36171 -21.68513,-17.59925 -83.68023,-51.85706 -74.93967,-41.41093 -78.57921,-43.27385 -94.85408,-48.55264 -22.42947,-7.27491 -40.17114,-1.36707 -105.27691,35.0563 -101.58389,56.83101 -99.57667,55.60284 -110.94989,67.88727 -22.90725,24.7426 -23.08888,25.90333 -22.30419,142.51405 l 0.63507,94.38044 5.50598,11.75647 c 8.86303,18.92461 20.21904,30.45545 43.40613,44.07464 22.17869,13.02681 119.43184,67.58544 130.90753,73.43866 15.64935,7.9818 25.07824,10.43492 40.73266,10.59729 13.90755,0.14418 17.82058,-0.67554 31.28624,-6.55454 z M 364.62814,615.10518 c -14.32702,-5.12097 -84.66032,-44.19029 -92.96384,-51.64032 -2.60344,-2.33594 -6.84187,-8.71774 -9.41869,-14.18185 -4.54941,-9.64739 -4.68425,-11.42919 -4.66077,-61.5957 0.0332,-70.27861 -1.39526,-67.65316 53.58481,-98.50018 54.04996,-30.32519 61.80646,-32.9744 78.73179,-26.89035 12.81966,4.60813 82.64356,44.56675 89.86209,51.426 13.47058,12.80006 14.11392,16.1991 14.16255,74.82744 0.0598,71.942 2.39437,67.97292 -60.55853,102.95856 -34.09646,18.94886 -50.68587,26.42904 -58.18793,26.23704 -1.8743,-0.048 -6.62243,-1.23629 -10.55148,-2.64064 z" id="path4318" inkscape:connector-curvature="0" fill="#ffffff" fill-opacity="1"/>
  </g></g></svg>